PathFileType	4	(X/Y/Z)	C:/Users/opensim2020/Desktop/walking_exp_matlab/subject02_walking08_straight_01.trc	
DataRate	CameraRate	NumFrames	NumMarkers	Units	OrigDataRate	OrigDataStartFrame	OrigNumFrames	
100.00	100.00	4	41	mm	100.00	761	324	
Frame#	Time	LFHD			RFHD			LBHD			RBHD			C7			T10			CLAV			STRN			RBAK			LSHO			LUPA			LELB			LFRM			LWRA			LWRB			LFIN			RSHO			RUPA			RELB			RFRM			RWRA			RWRB			RFIN			LASI			RASI			LPSI			RPSI			LTHI			LKNE			LTIB			LANK			LHEE			LTOE			RTHI			RKNE			RTIB			RANK			RHEE			RTOE			*39			*40			
		X1	Y1	Z1	X2	Y2	Z2	X3	Y3	Z3	X4	Y4	Z4	X5	Y5	Z5	X6	Y6	Z6	X7	Y7	Z7	X8	Y8	Z8	X9	Y9	Z9	X10	Y10	Z10	X11	Y11	Z11	X12	Y12	Z12	X13	Y13	Z13	X14	Y14	Z14	X15	Y15	Z15	X16	Y16	Z16	X17	Y17	Z17	X18	Y18	Z18	X19	Y19	Z19	X20	Y20	Z20	X21	Y21	Z21	X22	Y22	Z22	X23	Y23	Z23	X24	Y24	Z24	X25	Y25	Z25	X26	Y26	Z26	X27	Y27	Z27	X28	Y28	Z28	X29	Y29	Z29	X30	Y30	Z30	X31	Y31	Z31	X32	Y32	Z32	X33	Y33	Z33	X34	Y34	Z34	X35	Y35	Z35	X36	Y36	Z36	X37	Y37	Z37	X38	Y38	Z38	X39	Y39	Z39	X40	Y40	Z40	X41	Y41	Z41	

203	2.020	-1073.75171	219.75548	1730.62988	-931.11450	211.38174	1705.05688	-1093.73608	90.24548	1656.22546	-954.21674	69.50526	1629.72986	-1019.05756	30.67844	1514.61890	-1009.10681	-27.64249	1238.97473	-1041.89050	166.67525	1441.75635	-1029.63611	216.16721	1269.61987	-947.83313	-26.51264	1344.16016	-1204.63538	82.24857	1483.27808	-1279.23792	25.64326	1290.42798	-1285.91907	-10.51906	1154.75977	-1303.91223	-36.50584	1026.19690	-1291.93152	-6.53717	889.20361	-1311.59094	-57.46833	904.72449	-1319.09521	-56.01978	837.36169	-841.03851	125.59703	1481.42322	-749.94263	126.54118	1290.92090	-731.66125	164.83556	1148.12781	-722.03241	220.37375	1039.96899	-752.85712	291.70862	928.52032	-713.52118	252.59392	913.96252	-718.29150	303.87643	863.01550	-1146.77087	210.20419	979.89490	-886.09912	202.98042	958.72388	-1067.08484	-2.85501	1019.89307	-953.30640	-10.58315	1020.12012	-1221.72595	206.69225	679.40216	-1191.18665	239.62048	481.21503	-1196.92712	243.18088	286.55975	-1179.60754	321.06635	73.45440	-1126.24878	299.58911	36.60716	-1194.81689	478.27441	77.47769	-834.08356	65.16077	663.03638	-874.15179	11.66710	458.93256	-868.91315	-85.77632	296.49722	-906.01855	-162.62717	116.96950	-961.24078	-211.57928	71.71160	-898.79272	-24.74100	35.72535	-986.45892	112.56509	1791.15466	-3360.31592	2845.25269	1033.98743 
204	2.030	-1076.46570	227.45717	1729.98779	-933.85065	219.13052	1704.54370	-1096.34778	98.13862	1655.25232	-956.66302	77.75044	1628.76270	-1021.56165	38.84970	1513.68811	-1012.02014	-19.01090	1237.85925	-1044.33508	174.97630	1441.10364	-1032.12708	224.86024	1269.06995	-950.44141	-18.18428	1343.08997	-1207.13770	90.55809	1482.56482	-1281.75439	34.44428	1289.55884	-1288.46472	-1.43653	1153.90662	-1306.58508	-27.62935	1025.45862	-1294.81580	2.23562	888.57568	-1314.47559	-48.70340	904.01392	-1322.06104	-47.38828	836.62994	-843.53107	133.59486	1480.58350	-752.59790	134.84151	1290.11768	-734.40179	172.40724	1147.21838	-724.72125	227.46066	1039.00354	-755.52319	298.40060	927.04749	-716.24847	259.23291	912.74109	-721.09546	310.33923	861.63379	-1149.58545	220.22362	979.76190	-888.83679	211.65805	957.84845	-1070.27771	6.67289	1018.84460	-956.60205	-1.29118	1019.11932	-1223.62439	215.66034	678.21704	-1192.62109	246.39102	479.53131	-1197.36304	247.30519	284.70517	-1179.21411	322.15106	70.59468	-1126.07935	299.87268	34.85633	-1193.85522	479.58496	72.10690	-835.83282	72.40117	663.22638	-874.89734	18.26350	459.19498	-869.52136	-81.86791	298.18811	-905.83502	-161.11591	119.59539	-961.24908	-210.61266	75.27094	-898.21021	-24.70159	35.87951	-989.32483	120.04503	1790.40857	-3360.37085	2845.15015	1033.96545 
205	2.040	-1079.30737	235.21155	1729.38367	-936.68408	226.99562	1704.15356	-1098.95740	106.05666	1654.22961	-959.12335	85.97709	1627.83789	-1024.11938	46.98858	1512.79089	-1015.06738	-10.27139	1236.77209	-1046.88525	183.30766	1440.44788	-1034.72412	233.69096	1268.62000	-953.24292	-9.69705	1341.92175	-1209.65601	98.86715	1481.81653	-1284.36902	43.36757	1288.66699	-1291.09729	7.66016	1152.86487	-1309.41980	-18.43099	1024.64209	-1298.02283	11.19216	887.47467	-1317.52429	-39.69733	903.21252	-1325.12915	-38.48488	835.83185	-846.08099	141.75758	1479.69385	-755.31329	142.67627	1289.34741	-737.26666	179.61008	1146.33801	-727.59003	234.40607	1037.62671	-758.21960	304.92462	925.63489	-718.90405	265.84058	911.50800	-723.69464	316.48108	860.00250	-1152.36914	230.40848	979.55261	-891.35266	221.26169	957.53253	-1073.76965	16.42470	1017.73389	-959.30115	7.31324	1018.61078	-1225.52051	224.56235	676.92157	-1194.61157	252.63472	477.77872	-1197.45862	251.28058	282.77957	-1178.83984	324.32098	69.04267	-1125.48254	301.78979	35.80555	-1194.24756	482.84323	64.47446	-837.62939	79.88892	663.36420	-875.58307	25.07286	459.51489	-870.12793	-77.59321	300.11588	-905.66290	-159.37178	122.55501	-961.11176	-209.18878	78.98022	-897.88940	-24.46924	35.89771	-992.12677	127.68617	1789.60083	-3360.28149	2845.17432	1034.00110 
206	2.050	-1082.16199	242.94014	1729.11340	-939.39679	234.78142	1703.98022	-1101.80139	114.04202	1653.47180	-961.90997	94.14131	1627.15735	-1026.79456	54.92791	1512.00793	-1018.34613	-1.45761	1236.04822	-1049.56238	191.64745	1439.92664	-1037.35474	242.39264	1268.36682	-956.27014	-1.49221	1341.19678	-1212.46484	107.28782	1481.34644	-1287.03577	52.33264	1287.78882	-1293.89209	17.00530	1151.93274	-1312.36816	-9.04101	1023.78577	-1301.22742	20.56561	886.59680	-1320.71606	-30.32063	902.35754	-1328.38879	-29.18748	834.96429	-848.67755	149.83284	1478.92224	-758.12604	150.51106	1288.50439	-740.20123	186.61545	1145.14075	-730.27417	241.40717	1036.71948	-761.01563	311.50104	924.18250	-721.54785	272.25903	910.29498	-726.61615	323.05536	858.54169	-1155.18689	240.70546	979.44336	-894.08453	230.82051	957.05017	-1077.49280	26.28658	1016.61237	-963.03650	16.81305	1017.51056	-1227.44824	233.03003	676.22601	-1197.33521	257.83698	476.71368	-1196.87756	256.02560	281.42789	-1180.56616	328.61066	69.07822	-1127.34534	304.72937	38.48634	-1195.56226	487.87152	56.81791	-839.45856	87.85212	663.48907	-876.47656	32.45173	460.05722	-870.82501	-73.07770	302.21368	-905.49023	-157.67229	125.95304	-960.95715	-207.56123	83.11568	-897.58362	-24.19138	35.92753	-995.06183	135.16635	1789.01965	-3360.28320	2845.17554	1033.96887 
